# xmcd
#
# Track frame offsets:
#	150
#	19317
#	39697
#	62732
#	83587
#	97757
#	120040
#	139560
#	157422
#	178360
#	198820
#	220231
#	237786
#	252221
#	270939
#	292565
#	312074
#	331177
#
# Disc length: 4705 seconds
#
# Revision: 1
# Processed by: cddbd v1.5.2PL0 Copyright (c) Steve Scherf et al.
# Submitted via: EasyCDDAExtractor 12.0.1.1
#
DISCID=e7125f12
DTITLE=Various Artist - 感谢.情人
DYEAR=2004
DGENRE=pop
TTITLE0=黄品源 - 情人
TTITLE1=黄品源 - 白鹭鸶
TTITLE2=黄品源 - 长假
TTITLE3=黄品源 - 你呀你
TTITLE4=黄品源 - 少年悍将
TTITLE5=黄品源 - 忘情歌
TTITLE6=黄品源 - 错觉
TTITLE7=黄品源 - 不要害怕
TTITLE8=黄品源 - 她教我的事
TTITLE9=黄品源 - 感谢
TTITLE10=黄品源 - 风中花
TTITLE11=黄品源 - 简单情歌
TTITLE12=黄品源 - 小薇
TTITLE13=黄品源 - 笑着让你走
TTITLE14=黄品源 - 海浪
TTITLE15=黄品源 - 那么爱你为什么
TTITLE16=黄品源,莫文蔚 - 狠不下心
TTITLE17=黄品源 - 你怎么舍得我难过
EXTD=
EXTT0=
EXTT1=
EXTT2=
EXTT3=
EXTT4=
EXTT5=
EXTT6=
EXTT7=
EXTT8=
EXTT9=
EXTT10=
EXTT11=
EXTT12=
EXTT13=
EXTT14=
EXTT15=
EXTT16=
EXTT17=
PLAYORDER=
